<!DOCTYPE svg PUBLIC "-//W3C//DTD SVG 1.1//EN" "http://www.w3.org/Graphics/SVG/1.1/DTD/svg11.dtd">
<!-- Uploaded to: SVG Repo, www.svgrepo.com, Transformed by: SVG Repo Mixer Tools -->
<svg fill="#ffffff" width="800px" height="800px" viewBox="-3.96 -3.96 43.92 43.92" version="1.1" preserveAspectRatio="xMidYMid meet" xmlns="http://www.w3.org/2000/svg" xmlns:xlink="http://www.w3.org/1999/xlink" stroke="#ffffff" stroke-width="0.00036">
<g id="SVGRepo_bgCarrier" stroke-width="0"/>
<g id="SVGRepo_tracerCarrier" stroke-linecap="round" stroke-linejoin="round" stroke="#CCCCCC" stroke-width="0.072"/>
<g id="SVGRepo_iconCarrier"> <title>bars-line</title> <path class="clr-i-outline clr-i-outline-path-1" d="M32,29H4a1,1,0,0,1,0-2H32a1,1,0,0,1,0,2Z"/>
<path class="clr-i-outline clr-i-outline-path-2" d="M32,19H4a1,1,0,0,1,0-2H32a1,1,0,0,1,0,2Z"/>
<path class="clr-i-outline clr-i-outline-path-3" d="M32,9H4A1,1,0,0,1,4,7H32a1,1,0,0,1,0,2Z"/> <rect x="0" y="0" width="36" height="36" fill-opacity="0"/> </g>
</svg>